<svg width="66" height="66" viewBox="0 0 66 66" fill="none" xmlns="http://www.w3.org/2000/svg">
<path fill-rule="evenodd" clip-rule="evenodd" d="M22.9565 0C10.278 0 0 10.278 0 22.9565V43.0435C0 55.722 10.278 66 22.9565 66H43.0435C55.722 66 66 55.722 66 43.0435V22.9565C66 10.278 55.722 0 43.0435 0H22.9565ZM41.1716 27.6539L51.9258 16.8715C48.3145 13.2494 43.5925 10.9525 38.5209 10.351C33.4492 9.7495 28.3234 10.8785 23.9696 13.556C23.3737 13.9203 22.7995 14.311 22.247 14.7281C19.7419 16.6016 17.6488 18.9728 16.0983 21.6941C14.5478 24.4153 13.5732 27.428 13.2354 30.5439C12.8977 33.6599 13.204 36.8123 14.1353 39.8042C15.0665 42.7961 16.6027 45.5633 18.6479 47.933C20.6931 50.3027 23.2034 52.224 26.022 53.577C28.8407 54.93 31.9071 55.6856 35.0299 55.7966C38.1527 55.9076 41.2648 55.3716 44.1719 54.2222C47.0789 53.0727 49.7185 51.3344 51.9258 49.1159L41.1577 38.3428C40.0116 39.4952 38.523 40.2426 36.9165 40.4722L36.8723 40.4785L36.8456 40.4821C36.8651 40.4733 36.8808 40.4658 36.8926 40.4603C36.9045 40.4547 36.9125 40.4509 36.9165 40.4493C36.5731 40.507 36.2259 40.5396 35.8778 40.547L35.8551 40.5469C34.6623 40.5394 33.4888 40.2448 32.4333 39.6877C30.5442 39.6406 28.668 39.3615 26.8467 38.8565C26.5002 38.7616 26.1646 38.6308 25.8454 38.4662C26.9834 38.8309 28.7222 38.865 30.8132 38.5771C33.3762 38.2068 35.8932 37.5666 38.3225 36.6672C38.5289 36.5949 38.733 36.5179 38.9364 36.4413C39.0221 36.409 39.1076 36.3768 39.1931 36.345C39.8567 36.065 40.5049 35.7773 41.1376 35.4817L41.1842 35.461C41.8941 35.1449 42.5725 34.8155 43.2107 34.4771C44.2781 33.9235 45.3077 33.2995 46.2927 32.6092C48.5552 30.9981 49.7703 29.4197 49.3932 28.3177C48.9323 27.0522 46.5115 26.6693 43.1549 27.1129C45.1335 26.9588 45.7294 28.0282 45.8504 28.313C45.853 28.3285 45.853 28.3443 45.8504 28.3597C46.1716 29.2563 45.1381 30.5405 43.2759 31.862C41.517 33.047 39.6305 34.0292 37.6521 34.7899C37.3076 34.93 36.9584 35.0655 36.5999 35.1962C34.3001 36.0637 31.9035 36.6471 29.4631 36.9333C27.1121 37.1575 25.4594 36.8586 25.1335 35.9247C25.0633 35.7201 25.0536 35.4996 25.1056 35.2896L25.1006 35.2939L25.1009 35.2936C25.315 34.3457 26.558 33.1409 28.4202 31.9454C28.5689 30.886 28.9408 29.8704 29.5113 28.9665C30.0818 28.0625 30.8378 27.2908 31.7288 26.7027C32.6199 26.1146 33.6256 25.7237 34.6791 25.556C34.9732 25.5092 35.2691 25.4801 35.5654 25.4686C35.6617 25.465 35.7583 25.4634 35.8551 25.4636C36.2095 25.4639 36.5631 25.4888 36.9134 25.5379C37.2247 25.5823 37.5336 25.6464 37.8383 25.73C38.9772 26.0454 40.0264 26.6244 40.9016 27.4205C40.9813 27.5095 41.072 27.588 41.1716 27.6539ZM24.4182 36.7095L24.4212 36.6905L24.4198 36.6738L24.4165 36.6899L24.4151 36.6986L24.4182 36.7095ZM24.7199 37.8546L24.6586 37.8153C24.1653 37.494 23.5509 37.0392 22.9094 36.4308C23.5795 37.0666 24.2203 37.5351 24.7248 37.8591L24.7199 37.8546Z" fill="url(#paint0_linear)"/>
<defs>
<linearGradient id="paint0_linear" x1="0" y1="0" x2="66" y2="66" gradientUnits="userSpaceOnUse">
<stop stop-color="#19EDD6"/>
<stop offset="1" stop-color="#10BAA8"/>
</linearGradient>
</defs>
</svg>
